<svg xmlns="http://w3.org" viewBox="0 0 500 500" width="100%" height="100%">
  <defs>
    <linearGradient id="navyGradient" x1="0%" y1="100%" x2="100%" y2="0%">
      <stop offset="0%" stop-color="#0a2540" />
      <stop offset="100%" stop-color="#1e5080" />
    </linearGradient>
    <linearGradient id="tealGradient" x1="0%" y1="100%" x2="100%" y2="0%">
      <stop offset="0%" stop-color="#14888a" />
      <stop offset="50%" stop-color="#20b2aa" />
      <stop offset="100%" stop-color="#00fa9a" />
    </linearGradient>
    <filter id="dropShadow" x="-10%" y="-10%" width="130%" height="130%">
      <feDropShadow dx="-4" dy="4" stdDeviation="6" flood-color="#051221" flood-opacity="0.4"/>
    </filter>
  </defs>
  <path d="M 120 400 
           L 120 160 
           C 120 120, 150 100, 200 100 
           L 320 100 
           C 300 135, 260 145, 210 145 
           C 175 145, 168 165, 168 195 
           L 168 400 
           Z" 
        fill="url(#navyGradient)" />
  <path d="M 120 290 
           C 160 290, 220 270, 260 210 
           C 300 150, 340 100, 390 70
           L 340 60
           L 420 50
           L 400 130
           L 370 95
           C 330 125, 290 180, 250 235
           C 210 290, 160 325, 120 325
           Z" 
        fill="url(#tealGradient)" 
        filter="url(#dropShadow)" />
</svg>
